<?xml version="1.0" encoding="UTF-8" standalone="no"?>
<svg
   xmlns:dc="http://purl.org/dc/elements/1.1/"
   xmlns:cc="http://creativecommons.org/ns#"
   xmlns:rdf="http://www.w3.org/1999/02/22-rdf-syntax-ns#"
   xmlns:svg="http://www.w3.org/2000/svg"
   xmlns="http://www.w3.org/2000/svg"
   xmlns:xlink="http://www.w3.org/1999/xlink"
   xmlns:sodipodi="http://sodipodi.sourceforge.net/DTD/sodipodi-0.dtd"
   xmlns:inkscape="http://www.inkscape.org/namespaces/inkscape"
   version="1.2"
   width="420.84158"
   height="121.10025"
   viewBox="0 0 45.058097 12.965799"
   id="svg2"
   inkscape:version="0.48.2 r9819"
   sodipodi:docname="programming-2014-06-23-second-post-1.svg">
  <metadata
     id="metadata216">
    <rdf:RDF>
      <cc:Work
         rdf:about="">
        <dc:format>image/svg+xml</dc:format>
        <dc:type
           rdf:resource="http://purl.org/dc/dcmitype/StillImage" />
      </cc:Work>
    </rdf:RDF>
  </metadata>
  <defs
     id="defs214" />
  <sodipodi:namedview
     pagecolor="#ffffff"
     bordercolor="#666666"
     borderopacity="1"
     objecttolerance="10"
     gridtolerance="10"
     guidetolerance="10"
     inkscape:pageopacity="0"
     inkscape:pageshadow="2"
     inkscape:window-width="483"
     inkscape:window-height="454"
     id="namedview212"
     showgrid="false"
     inkscape:zoom="0.22425739"
     inkscape:cx="283.46454"
     inkscape:cy="-377.86604"
     inkscape:window-x="0"
     inkscape:window-y="0"
     inkscape:window-maximized="0"
     inkscape:current-layer="svg2" />
  <!-- Page: 1/1 -->
  <text
     font-size="2.2003"
     id="text4"
     style="font-size:2.20029998px;text-anchor:start;fill:currentColor;font-family:Century Schoolbook L"
     x="-5.6905541"
     y="-1.016897">
    <tspan
       id="tspan6" />
  </text>
  <rect
     x="44.909645"
     y="3.8943031"
     width="0.14839999"
     height="4"
     ry="0"
     id="rect8"
     style="fill:currentColor" />
  <rect
     x="15.883747"
     y="8.8053026"
     width="1.9744"
     height="0.1781"
     ry="0.089000002"
     id="rect10"
     style="fill:currentColor" />
  <rect
     x="35.851746"
     y="8.8053026"
     width="1.9744"
     height="0.1781"
     ry="0.089000002"
     id="rect12"
     style="fill:currentColor" />
  <rect
     x="38.614044"
     y="8.8053026"
     width="2.0746"
     height="0.1781"
     ry="0.089000002"
     id="rect14"
     style="fill:currentColor" />
  <line
     x1="0.039045937"
     y1="7.8943028"
     x2="45.019047"
     y2="7.8943028"
     id="line16"
     style="stroke:currentColor;stroke-width:0.0781;stroke-linecap:round;stroke-linejoin:round" />
  <line
     x1="0.039045937"
     y1="6.8943028"
     x2="45.019047"
     y2="6.8943028"
     id="line18"
     style="stroke:currentColor;stroke-width:0.0781;stroke-linecap:round;stroke-linejoin:round" />
  <line
     x1="0.039045937"
     y1="5.8943028"
     x2="45.019047"
     y2="5.8943028"
     id="line20"
     style="stroke:currentColor;stroke-width:0.0781;stroke-linecap:round;stroke-linejoin:round" />
  <line
     x1="0.039045937"
     y1="4.8943028"
     x2="45.019047"
     y2="4.8943028"
     id="line22"
     style="stroke:currentColor;stroke-width:0.0781;stroke-linecap:round;stroke-linejoin:round" />
  <line
     x1="0.039045937"
     y1="3.8943031"
     x2="45.019047"
     y2="3.8943031"
     id="line24"
     style="stroke:currentColor;stroke-width:0.0781;stroke-linecap:round;stroke-linejoin:round" />
  <rect
     x="23.232845"
     y="3.8943031"
     width="0.14839999"
     height="4"
     ry="0"
     id="rect26"
     style="fill:currentColor" />
  <path
     d="m 21.495446,4.4210031 c 0,0.792 0.836,1.344 0.836,2.136 0,0.284 -0.064,0.568 -0.168,0.832 -0.016,0.028 -0.044,0.044 -0.072,0.044 -0.048,0 -0.096,-0.04 -0.084,-0.1 0.104,-0.244 0.168,-0.508 0.168,-0.776 0,-0.42 -0.388,-0.836 -0.68,-1.136 h -0.056 v -1 h 0.056 z"
     id="path28"
     inkscape:connector-curvature="0"
     style="fill:currentColor" />
  <rect
     x="21.393847"
     y="4.3943028"
     width="0.1015"
     height="3.3017001"
     ry="0.026699999"
     id="rect30"
     style="fill:currentColor" />
  <a
     xlink:href="textedit:///Users/archagon/Documents/Programming/Web/Blog/jekyll/images/lilypond/-:16:8:9"
     id="a32"
     transform="translate(-9.4842541,-2.9137969)">
    <text
       transform="translate(28.4778,15.3659)"
       font-size="2.4696"
       id="text34"
       style="font-size:2.46959996px;text-anchor:start;fill:currentColor;font-family:Century Schoolbook L">
      <tspan
         id="tspan36">the</tspan>
    </text>
  </a>
  <a
     xlink:href="textedit:///Users/archagon/Documents/Programming/Web/Blog/jekyll/images/lilypond/-:11:20:21"
     id="a38"
     transform="translate(-9.4842541,-2.9137969)">
    <path
       transform="matrix(0.004,0,0,-0.004,29.6634,10.8081)"
       d="m 224,136 c 53,0 105,-26 105,-86 0,-71 -57,-122 -104,-150 -36,-22 -78,-36 -120,-36 -53,0 -105,26 -105,86 0,71 58,122 105,150 36,22 77,36 119,36 z"
       id="path40"
       inkscape:connector-curvature="0"
       style="fill:currentColor" />
  </a>
  <rect
     x="17.427546"
     y="5.3943028"
     width="0.1015"
     height="3.3017001"
     ry="0.026699999"
     id="rect42"
     style="fill:currentColor" />
  <a
     xlink:href="textedit:///Users/archagon/Documents/Programming/Web/Blog/jekyll/images/lilypond/-:11:16:17"
     id="a44"
     transform="translate(-9.4842541,-2.9137969)">
    <path
       transform="matrix(0.004,0,0,-0.004,25.6971,11.8081)"
       d="m 224,136 c 53,0 105,-26 105,-86 0,-71 -57,-122 -104,-150 -36,-22 -78,-36 -120,-36 -53,0 -105,26 -105,86 0,71 58,122 105,150 36,22 77,36 119,36 z"
       id="path46"
       inkscape:connector-curvature="0"
       style="fill:currentColor" />
  </a>
  <path
     d="m 12.646546,7.7183031 -0.004,0.276 c 0,0.016 -0.004,0.028 -0.004,0.044 0,0.088 0.008,0.176 0.016,0.264 0.184,-0.152 0.384,-0.32 0.384,-0.556 0,-0.136 -0.056,-0.276 -0.176,-0.276 -0.124,0 -0.212,0.116 -0.216,0.248 z m -0.156,0.72 -0.044,-2.396 c 0.032,-0.016 0.064,-0.028 0.1,-0.028 0.036,0 0.068,0.012 0.1,0.028 l -0.024,1.396 c 0.104,-0.076 0.224,-0.12 0.352,-0.12 0.212,0 0.372,0.184 0.372,0.4 0,0.328 -0.36,0.472 -0.612,0.676 -0.056,0.044 -0.088,0.128 -0.16,0.128 -0.048,0 -0.084,-0.036 -0.084,-0.084 z"
     id="path48"
     inkscape:connector-curvature="0"
     style="fill:currentColor" />
  <path
     d="m 15.012846,4.4210031 c 0,0.792 0.836,1.344 0.836,2.136 0,0.284 -0.064,0.568 -0.168,0.832 -0.016,0.028 -0.044,0.044 -0.072,0.044 -0.048,0 -0.096,-0.04 -0.084,-0.1 0.104,-0.244 0.168,-0.508 0.168,-0.776 0,-0.42 -0.388,-0.836 -0.68,-1.136 h -0.056 v -1 h 0.056 z"
     id="path50"
     inkscape:connector-curvature="0"
     style="fill:currentColor" />
  <rect
     x="14.911345"
     y="4.3943028"
     width="0.1015"
     height="3.3017001"
     ry="0.026699999"
     id="rect52"
     style="fill:currentColor" />
  <a
     xlink:href="textedit:///Users/archagon/Documents/Programming/Web/Blog/jekyll/images/lilypond/-:15:12:13"
     id="a54"
     transform="translate(-9.4842541,-2.9137969)">
    <text
       transform="translate(23.1808,15.3659)"
       font-size="2.4696"
       id="text56"
       style="font-size:2.46959996px;text-anchor:start;fill:currentColor;font-family:Century Schoolbook L">
      <tspan
         id="tspan58">are</tspan>
    </text>
  </a>
  <a
     xlink:href="textedit:///Users/archagon/Documents/Programming/Web/Blog/jekyll/images/lilypond/-:11:11:12"
     id="a60"
     transform="translate(-9.4842541,-2.9137969)">
    <path
       transform="matrix(0.004,0,0,-0.004,23.1808,10.8081)"
       d="m 224,136 c 53,0 105,-26 105,-86 0,-71 -57,-122 -104,-150 -36,-22 -78,-36 -120,-36 -53,0 -105,26 -105,86 0,71 58,122 105,150 36,22 77,36 119,36 z"
       id="path62"
       inkscape:connector-curvature="0"
       style="fill:currentColor" />
  </a>
  <a
     xlink:href="textedit:///Users/archagon/Documents/Programming/Web/Blog/jekyll/images/lilypond/-:11:14:15"
     id="a64"
     transform="translate(-9.4842541,-2.9137969)">
    <path
       transform="translate(23.1808,8.8081)"
       d="m 0.49610048,3.043227 c 0.41914263,0.8864955 1.60297632,1.3569645 2.51628412,1 -0.8786976,0.2698754 -2.0625313,-0.2005936 -2.51628412,-1 z"
       id="path66"
       inkscape:connector-curvature="0"
       style="fill:currentColor;stroke:currentColor;stroke-width:0.0625;stroke-linecap:round;stroke-linejoin:round" />
  </a>
  <a
     xlink:href="textedit:///Users/archagon/Documents/Programming/Web/Blog/jekyll/images/lilypond/-:12:17:18"
     id="a68"
     transform="translate(-9.4842541,-2.9137969)">
    <path
       transform="translate(45.6651,8.8081)"
       d="M 0.85814206,3.75 C 1.4183587,4.3702357 2.7103324,4.3702357 3.2705491,3.75 2.7103324,4.2765214 1.4183587,4.2765214 0.85814206,3.75 z"
       id="path70"
       inkscape:connector-curvature="0"
       style="fill:currentColor;stroke:currentColor;stroke-width:0.0625;stroke-linecap:round;stroke-linejoin:round" />
  </a>
  <polygon
     transform="translate(25.645246,4.8943031)"
     points="0.0267,-0.2133 11.8252,0.5857 11.8252,1.0124 0.0267,0.2133 "
     id="polygon72"
     style="fill:currentColor;stroke:currentColor;stroke-width:0.0533;stroke-linecap:round;stroke-linejoin:round" />
  <rect
     x="25.645145"
     y="4.8977032"
     width="0.1015"
     height="2.2983"
     ry="0.026699999"
     id="rect74"
     style="fill:currentColor" />
  <a
     xlink:href="textedit:///Users/archagon/Documents/Programming/Web/Blog/jekyll/images/lilypond/-:16:12:13"
     id="a76"
     transform="translate(-9.4842541,-2.9137969)">
    <text
       transform="translate(32.6153,15.3659)"
       font-size="2.4696"
       id="text78"
       style="font-size:2.46959996px;text-anchor:start;fill:currentColor;font-family:Century Schoolbook L">
      <tspan
         id="tspan80">sky</tspan>
    </text>
  </a>
  <a
     xlink:href="textedit:///Users/archagon/Documents/Programming/Web/Blog/jekyll/images/lilypond/-:12:8:9"
     id="a82"
     transform="translate(-9.4842541,-2.9137969)">
    <path
       transform="matrix(0.004,0,0,-0.004,33.9147,10.3081)"
       d="m 224,136 c 53,0 105,-26 105,-86 0,-71 -57,-122 -104,-150 -36,-22 -78,-36 -120,-36 -53,0 -105,26 -105,86 0,71 58,122 105,150 36,22 77,36 119,36 z"
       id="path84"
       inkscape:connector-curvature="0"
       style="fill:currentColor" />
  </a>
  <a
     xlink:href="textedit:///Users/archagon/Documents/Programming/Web/Blog/jekyll/images/lilypond/-:8:14:15"
     id="a86"
     transform="translate(-9.4842541,-2.9137969)">
    <text
       transform="translate(33.9147,5.7626)"
       font-size="2.6163"
       id="text88"
       style="font-size:2.61630011px;text-anchor:start;fill:currentColor;font-family:sans-serif">
      <tspan
         id="tspan90">F</tspan>
    </text>
    <text
       transform="translate(35.417,5.7626)"
       font-size="2.6163"
       id="text92"
       style="font-size:2.61630011px;text-anchor:start;fill:currentColor;font-family:sans-serif">
      <tspan
         id="tspan94" />
    </text>
    <text
       transform="translate(35.417,5.7626)"
       font-size="2.6163"
       id="text96"
       style="font-size:2.61630011px;text-anchor:start;fill:currentColor;font-family:sans-serif">
      <tspan
         id="tspan98" />
    </text>
    <text
       transform="translate(35.417,4.2626)"
       font-size="1.8502"
       id="text100"
       style="font-size:1.85020006px;text-anchor:start;fill:currentColor;font-family:sans-serif">
      <tspan
         id="tspan102" />
    </text>
    <text
       transform="translate(35.417,4.2626)"
       font-size="1.8502"
       id="text104"
       style="font-size:1.85020006px;text-anchor:start;fill:currentColor;font-family:sans-serif">
      <tspan
         id="tspan106">7</tspan>
    </text>
  </a>
  <path
     d="m 27.927646,7.7183031 -0.004,0.276 c 0,0.016 -0.004,0.028 -0.004,0.044 0,0.088 0.008,0.176 0.016,0.264 0.184,-0.152 0.384,-0.32 0.384,-0.556 0,-0.136 -0.056,-0.276 -0.176,-0.276 -0.124,0 -0.212,0.116 -0.216,0.248 z m -0.156,0.72 -0.044,-2.396 c 0.032,-0.016 0.064,-0.028 0.1,-0.028 0.036,0 0.068,0.012 0.1,0.028 l -0.024,1.396 c 0.104,-0.076 0.224,-0.12 0.352,-0.12 0.212,0 0.372,0.184 0.372,0.4 0,0.328 -0.36,0.472 -0.612,0.676 -0.056,0.044 -0.088,0.128 -0.16,0.128 -0.048,0 -0.084,-0.036 -0.084,-0.084 z"
     id="path108"
     inkscape:connector-curvature="0"
     style="fill:currentColor" />
  <rect
     x="30.192347"
     y="5.2043033"
     width="0.1015"
     height="2.4916999"
     ry="0.026699999"
     id="rect110"
     style="fill:currentColor" />
  <a
     xlink:href="textedit:///Users/archagon/Documents/Programming/Web/Blog/jekyll/images/lilypond/-:16:16:17"
     id="a112"
     transform="translate(-9.4842541,-2.9137969)">
    <text
       transform="translate(36.9804,15.3659)"
       font-size="2.4696"
       id="text114"
       style="font-size:2.46959996px;text-anchor:start;fill:currentColor;font-family:Century Schoolbook L">
      <tspan
         id="tspan116">and</tspan>
    </text>
  </a>
  <a
     xlink:href="textedit:///Users/archagon/Documents/Programming/Web/Blog/jekyll/images/lilypond/-:12:11:12"
     id="a118"
     transform="translate(-9.4842541,-2.9137969)">
    <path
       transform="matrix(0.004,0,0,-0.004,38.4619,10.8081)"
       d="m 224,136 c 53,0 105,-26 105,-86 0,-71 -57,-122 -104,-150 -36,-22 -78,-36 -120,-36 -53,0 -105,26 -105,86 0,71 58,122 105,150 36,22 77,36 119,36 z"
       id="path120"
       inkscape:connector-curvature="0"
       style="fill:currentColor" />
  </a>
  <rect
     x="9.9950457"
     y="3.3943031"
     width="0.1015"
     height="3.2293999"
     ry="0.026699999"
     id="rect122"
     style="fill:currentColor" />
  <a
     xlink:href="textedit:///Users/archagon/Documents/Programming/Web/Blog/jekyll/images/lilypond/-:15:8:9"
     id="a124"
     transform="translate(-9.4842541,-2.9137969)">
    <text
       transform="translate(16.6586,15.3659)"
       font-size="2.4696"
       id="text126"
       style="font-size:2.46959996px;text-anchor:start;fill:currentColor;font-family:Century Schoolbook L">
      <tspan
         id="tspan128">You</tspan>
    </text>
  </a>
  <path
     d="m 6.4400459,5.7943031 c -0.204,0 -0.304,-0.172 -0.304,-0.308 0,-0.156 0.112,-0.312 0.296,-0.312 0.024,0 0.052,0 0.072,0.004 -0.116,-0.148 -0.304,-0.24 -0.504,-0.24 -0.424,0 -0.452,0.292 -0.452,0.74 0,0.068 0.004,0.14 0.004,0.216 0,0.076 -0.004,0.148 -0.004,0.216 0,0.448 0.028,0.74 0.452,0.74 0.328,0 0.58,-0.272 0.656,-0.604 0.004,-0.024 0.024,-0.036 0.04,-0.036 0.024,0 0.044,0.016 0.044,0.044 0,0.376 -0.428,0.684 -0.74,0.684 -0.272,0 -0.548,-0.08 -0.736,-0.276 -0.196,-0.204 -0.264,-0.488 -0.264,-0.768 0,-0.28 0.068,-0.564 0.264,-0.768 0.188,-0.196 0.464,-0.276 0.736,-0.276 0.352,0 0.652,0.252 0.712,0.596 0.004,0.02 0.008,0.032 0.008,0.052 0,0.16 -0.128,0.296 -0.28,0.296 z"
     id="path130"
     inkscape:connector-curvature="0"
     style="fill:currentColor" />
  <path
     d="m 2.2960459,5.8543031 c 0.02,0 0.04,-0.004 0.06,-0.004 0.616,0 1.016,0.508 1.016,1.036 0,0.304 -0.132,0.612 -0.428,0.832 -0.088,0.068 -0.188,0.116 -0.292,0.148 0.012,0.144 0.02,0.288 0.02,0.432 0,0.076 0,0.148 -0.004,0.224 -0.028,0.48 -0.352,0.904 -0.824,0.904 -0.432,0 -0.78,-0.348 -0.78,-0.78 0,-0.232 0.212,-0.416 0.448,-0.416 0.216,0 0.38,0.192 0.38,0.416 0,0.208 -0.172,0.38 -0.38,0.38 -0.048,0 -0.096,-0.016 -0.14,-0.036 0.104,0.164 0.28,0.28 0.484,0.28 0.384,0 0.628,-0.372 0.652,-0.772 0.004,-0.072 0.008,-0.14 0.008,-0.212 0,-0.128 -0.008,-0.256 -0.02,-0.384 -0.116,0.02 -0.232,0.032 -0.356,0.032 -0.752,0 -1.33199996,-0.684 -1.33199996,-1.488 0,-0.712 0.53199996,-1.224 1.00399996,-1.76 -0.072,-0.252 -0.14,-0.504 -0.168,-0.764 -0.024,-0.204 -0.028,-0.408 -0.028,-0.616 0,-0.464 0.22,-0.904 0.6,-1.18 0.008,-0.008 0.02,-0.012 0.032,-0.012 0.012,0 0.024,0.004 0.032,0.012 0.28,0.336 0.528,0.984 0.528,1.436 0,0.576 -0.348,1.024 -0.732,1.46 0.08,0.276 0.156,0.552 0.22,0.832 z m 0.34,1.86 c 0.276,-0.096 0.468,-0.384 0.468,-0.664 0,-0.368 -0.276,-0.736 -0.716,-0.772 0.1,0.468 0.192,0.94 0.248,1.436 z m -1.552,-0.944 c 0,0.544 0.524,1.004 1.068,1.004 0.112,0 0.22,-0.008 0.328,-0.024 -0.06,-0.512 -0.152,-0.988 -0.256,-1.468 -0.316,0.036 -0.5,0.248 -0.5,0.484 0,0.176 0.104,0.368 0.328,0.496 0.016,0.016 0.028,0.036 0.028,0.056 0,0.044 -0.036,0.084 -0.08,0.084 -0.012,0 -0.024,-0.004 -0.036,-0.008 -0.32,-0.172 -0.464,-0.456 -0.464,-0.736 0,-0.352 0.228,-0.692 0.632,-0.784 -0.056,-0.24 -0.12,-0.476 -0.184,-0.712 -0.432,0.484 -0.864,0.968 -0.864,1.608 z m 1.36,-4.076 c -0.396,0.2 -0.644,0.604 -0.644,1.048 0,0.304 0.06,0.548 0.132,0.8 0.328,-0.388 0.596,-0.792 0.596,-1.3 0,-0.232 -0.016,-0.336 -0.084,-0.548 z"
     id="path132"
     inkscape:connector-curvature="0"
     style="fill:currentColor" />
  <a
     xlink:href="textedit:///Users/archagon/Documents/Programming/Web/Blog/jekyll/images/lilypond/-:11:8:9"
     id="a134"
     transform="translate(-9.4842541,-2.9137969)">
    <path
       transform="matrix(0.004,0,0,-0.004,18.1978,9.8081)"
       d="m 318,67 c 0,25 -21,42 -43,42 -4,0 -9,-1 -13,-2 C 231,98 183,66 145,42 107,18 60,-13 39,-38 32,-46 28,-57 28,-67 c 0,-25 21,-42 43,-42 4,0 8,1 12,2 31,9 79,41 117,65 38,24 86,55 107,80 7,8 11,19 11,29 z m -51,69 c 44,0 79,-20 79,-68 0,-19 -6,-38 -12,-57 -13,-37 -32,-73 -65,-95 -54,-36 -115,-52 -190,-52 -44,0 -79,20 -79,68 0,19 6,38 12,57 13,37 31,73 64,95 54,36 116,52 191,52 z"
       id="path136"
       inkscape:connector-curvature="0"
       style="fill:currentColor" />
  </a>
  <a
     xlink:href="textedit:///Users/archagon/Documents/Programming/Web/Blog/jekyll/images/lilypond/-:8:8:9"
     id="a138"
     transform="translate(-9.4842541,-2.9137969)">
    <text
       transform="translate(18.1978,5.7626)"
       font-size="2.6163"
       id="text140"
       style="font-size:2.61630011px;text-anchor:start;fill:currentColor;font-family:sans-serif">
      <tspan
         id="tspan142">C</tspan>
    </text>
    <text
       transform="translate(20.0188,5.7626)"
       font-size="2.6163"
       id="text144"
       style="font-size:2.61630011px;text-anchor:start;fill:currentColor;font-family:sans-serif">
      <tspan
         id="tspan146" />
    </text>
    <text
       transform="translate(20.0188,5.7626)"
       font-size="2.6163"
       id="text148"
       style="font-size:2.61630011px;text-anchor:start;fill:currentColor;font-family:sans-serif">
      <tspan
         id="tspan150">m</tspan>
    </text>
    <text
       transform="translate(22.5454,4.2626)"
       font-size="1.8502"
       id="text152"
       style="font-size:1.85020006px;text-anchor:start;fill:currentColor;font-family:sans-serif">
      <tspan
         id="tspan154" />
    </text>
    <text
       transform="translate(22.5454,4.2626)"
       font-size="1.8502"
       id="text156"
       style="font-size:1.85020006px;text-anchor:start;fill:currentColor;font-family:sans-serif">
      <tspan
         id="tspan158">7</tspan>
    </text>
  </a>
  <rect
     x="40.241344"
     y="5.3943028"
     width="0.1015"
     height="3.2293999"
     ry="0.026699999"
     id="rect160"
     style="fill:currentColor" />
  <a
     xlink:href="textedit:///Users/archagon/Documents/Programming/Web/Blog/jekyll/images/lilypond/-:12:19:20"
     id="a162"
     transform="translate(-9.4842541,-2.9137969)">
    <path
       transform="matrix(0.004,0,0,-0.004,48.4441,11.8081)"
       d="m 318,67 c 0,25 -21,42 -43,42 -4,0 -9,-1 -13,-2 C 231,98 183,66 145,42 107,18 60,-13 39,-38 32,-46 28,-57 28,-67 c 0,-25 21,-42 43,-42 4,0 8,1 12,2 31,9 79,41 117,65 38,24 86,55 107,80 7,8 11,19 11,29 z m -51,69 c 44,0 79,-20 79,-68 0,-19 -6,-38 -12,-57 -13,-37 -32,-73 -65,-95 -54,-36 -115,-52 -190,-52 -44,0 -79,20 -79,68 0,19 6,38 12,57 13,37 31,73 64,95 54,36 116,52 191,52 z"
       id="path164"
       inkscape:connector-curvature="0"
       style="fill:currentColor" />
  </a>
  <a
     xlink:href="textedit:///Users/archagon/Documents/Programming/Web/Blog/jekyll/images/lilypond/-:8:19:20"
     id="a166"
     transform="translate(-9.4842541,-2.9137969)">
    <text
       transform="translate(48.4441,5.7626)"
       font-size="2.6163"
       id="text168"
       style="font-size:2.61630011px;text-anchor:start;fill:currentColor;font-family:sans-serif">
      <tspan
         id="tspan170">C</tspan>
    </text>
    <text
       transform="translate(50.2651,5.7626)"
       font-size="2.6163"
       id="text172"
       style="font-size:2.61630011px;text-anchor:start;fill:currentColor;font-family:sans-serif">
      <tspan
         id="tspan174" />
    </text>
    <text
       transform="translate(50.2651,5.7626)"
       font-size="2.6163"
       id="text176"
       style="font-size:2.61630011px;text-anchor:start;fill:currentColor;font-family:sans-serif">
      <tspan
         id="tspan178" />
    </text>
    <text
       transform="translate(50.2651,4.2626)"
       font-size="1.8502"
       id="text180"
       style="font-size:1.85020006px;text-anchor:start;fill:currentColor;font-family:sans-serif">
      <tspan
         id="tspan182" />
    </text>
  </a>
  <rect
     x="37.395546"
     y="5.6899033"
     width="0.1015"
     height="3.0060999"
     ry="0.026699999"
     id="rect184"
     style="fill:currentColor" />
  <a
     xlink:href="textedit:///Users/archagon/Documents/Programming/Web/Blog/jekyll/images/lilypond/-:16:23:24"
     id="a186"
     transform="translate(-9.4842541,-2.9137969)">
    <text
       transform="translate(45.6651,15.3659)"
       font-size="2.4696"
       id="text188"
       style="font-size:2.46959996px;text-anchor:start;fill:currentColor;font-family:Century Schoolbook L">
      <tspan
         id="tspan190">TRAIN,</tspan>
    </text>
  </a>
  <a
     xlink:href="textedit:///Users/archagon/Documents/Programming/Web/Blog/jekyll/images/lilypond/-:12:14:15"
     id="a192"
     transform="translate(-9.4842541,-2.9137969)">
    <path
       transform="matrix(0.004,0,0,-0.004,42.8042,11.3081)"
       d="m 224,136 c 53,0 105,-26 105,-86 0,-71 -57,-122 -104,-150 -36,-22 -78,-36 -120,-36 -53,0 -105,26 -105,86 0,71 58,122 105,150 36,22 77,36 119,36 z"
       id="path194"
       inkscape:connector-curvature="0"
       style="fill:currentColor" />
  </a>
  <a
     xlink:href="textedit:///Users/archagon/Documents/Programming/Web/Blog/jekyll/images/lilypond/-:16:20:21"
     id="a196"
     transform="translate(-9.4842541,-2.9137969)">
    <text
       transform="translate(41.7097,15.3659)"
       font-size="2.4696"
       id="text198"
       style="font-size:2.46959996px;text-anchor:start;fill:currentColor;font-family:Century Schoolbook L">
      <tspan
         id="tspan200">my</tspan>
    </text>
  </a>
  <rect
     x="34.534744"
     y="5.4970031"
     width="0.1015"
     height="2.6989"
     ry="0.026699999"
     id="rect202"
     style="fill:currentColor" />
  <a
     xlink:href="textedit:///Users/archagon/Documents/Programming/Web/Blog/jekyll/images/lilypond/-:12:16:17"
     id="a204"
     transform="translate(-9.4842541,-2.9137969)">
    <path
       transform="matrix(0.004,0,0,-0.004,45.6651,11.8081)"
       d="m 224,136 c 53,0 105,-26 105,-86 0,-71 -57,-122 -104,-150 -36,-22 -78,-36 -120,-36 -53,0 -105,26 -105,86 0,71 58,122 105,150 36,22 77,36 119,36 z"
       id="path206"
       inkscape:connector-curvature="0"
       style="fill:currentColor" />
  </a>
  <text
     font-size="2.2003"
     id="text208"
     style="font-size:2.20029998px;text-anchor:start;fill:currentColor;font-family:Century Schoolbook L"
     x="30.349646"
     y="107.4829">
    <tspan
       id="tspan210" />
  </text>
</svg>
