<?xml version="1.0" encoding="UTF-8" standalone="no"?>
<svg
   xmlns:dc="http://purl.org/dc/elements/1.1/"
   xmlns:cc="http://creativecommons.org/ns#"
   xmlns:rdf="http://www.w3.org/1999/02/22-rdf-syntax-ns#"
   xmlns:svg="http://www.w3.org/2000/svg"
   xmlns="http://www.w3.org/2000/svg"
   xmlns:xlink="http://www.w3.org/1999/xlink"
   xmlns:sodipodi="http://sodipodi.sourceforge.net/DTD/sodipodi-0.dtd"
   xmlns:inkscape="http://www.inkscape.org/namespaces/inkscape"
   version="1.2"
   width="134.94492"
   height="96.98954"
   viewBox="0 0 14.448099 10.384346"
   id="svg2"
   inkscape:version="0.48.2 r9819"
   sodipodi:docname="programming-2014-06-23-second-post-4.svg">
  <metadata
     id="metadata96">
    <rdf:RDF>
      <cc:Work
         rdf:about="">
        <dc:format>image/svg+xml</dc:format>
        <dc:type
           rdf:resource="http://purl.org/dc/dcmitype/StillImage" />
      </cc:Work>
    </rdf:RDF>
  </metadata>
  <defs
     id="defs94" />
  <sodipodi:namedview
     pagecolor="#ffffff"
     bordercolor="#666666"
     borderopacity="1"
     objecttolerance="10"
     gridtolerance="10"
     guidetolerance="10"
     inkscape:pageopacity="0"
     inkscape:pageshadow="2"
     inkscape:window-width="483"
     inkscape:window-height="454"
     id="namedview92"
     showgrid="false"
     inkscape:zoom="0.22425739"
     inkscape:cx="283.46454"
     inkscape:cy="-402.17704"
     inkscape:window-x="0"
     inkscape:window-y="0"
     inkscape:window-maximized="0"
     inkscape:current-layer="svg2" />
  <!-- Page: 1/1 -->
  <text
     font-size="2.2003"
     id="text4"
     style="font-size:2.20029998px;text-anchor:start;fill:currentColor;font-family:Century Schoolbook L"
     x="-5.6905541"
     y="-0.99545354">
    <tspan
       id="tspan6" />
  </text>
  <rect
     x="8.3844461"
     y="7.2953463"
     width="1.9744"
     height="0.1781"
     ry="0.089000002"
     id="rect8"
     style="fill:currentColor" />
  <rect
     x="8.3844461"
     y="1.2953465"
     width="1.9744"
     height="0.1781"
     ry="0.089000002"
     id="rect10"
     style="fill:currentColor" />
  <rect
     x="11.602747"
     y="7.2953463"
     width="1.9744"
     height="0.1781"
     ry="0.089000002"
     id="rect12"
     style="fill:currentColor" />
  <rect
     x="11.602747"
     y="1.2953465"
     width="1.9744"
     height="0.1781"
     ry="0.089000002"
     id="rect14"
     style="fill:currentColor" />
  <line
     x1="0.039045937"
     y1="6.3843465"
     x2="14.409046"
     y2="6.3843465"
     id="line16"
     style="stroke:currentColor;stroke-width:0.0781;stroke-linecap:round;stroke-linejoin:round" />
  <line
     x1="0.039045937"
     y1="5.3843465"
     x2="14.409046"
     y2="5.3843465"
     id="line18"
     style="stroke:currentColor;stroke-width:0.0781;stroke-linecap:round;stroke-linejoin:round" />
  <line
     x1="0.039045937"
     y1="4.3843465"
     x2="14.409046"
     y2="4.3843465"
     id="line20"
     style="stroke:currentColor;stroke-width:0.0781;stroke-linecap:round;stroke-linejoin:round" />
  <line
     x1="0.039045937"
     y1="3.3843465"
     x2="14.409046"
     y2="3.3843465"
     id="line22"
     style="stroke:currentColor;stroke-width:0.0781;stroke-linecap:round;stroke-linejoin:round" />
  <line
     x1="0.039045937"
     y1="2.3843465"
     x2="14.409046"
     y2="2.3843465"
     id="line24"
     style="stroke:currentColor;stroke-width:0.0781;stroke-linecap:round;stroke-linejoin:round" />
  <path
     d="m 12.033346,10.357646 h -0.056 V 9.3576464 h 0.056 c 0.396,-0.232 0.92,-0.588 0.92,-1.036 0,-0.228 -0.06,-0.448 -0.16,-0.656 -0.012,-0.06 0.036,-0.1 0.084,-0.1 0.028,0 0.052,0.012 0.068,0.04 0.1,0.224 0.164,0.468 0.164,0.716 0,0.816 -1.076,1.22 -1.076,2.0359996 z"
     id="path26"
     inkscape:connector-curvature="0"
     style="fill:currentColor" />
  <path
     d="m 12.033346,10.357646 h -0.056 V 9.3576464 h 0.056 c 0.396,-0.232 0.92,-0.588 0.92,-1.036 0,-0.228 -0.06,-0.448 -0.16,-0.656 -0.012,-0.06 0.036,-0.1 0.084,-0.1 0.028,0 0.052,0.012 0.068,0.04 0.1,0.224 0.164,0.468 0.164,0.716 0,0.816 -1.076,1.22 -1.076,2.0359996 z"
     id="path28"
     inkscape:connector-curvature="0"
     style="fill:currentColor" />
  <a
     xlink:href="textedit:///Users/archagon/Documents/Programming/Web/Blog/jekyll/images/lilypond/-:8:27:35"
     id="a30"
     transform="translate(-9.4842541,-2.8923536)">
    <path
       transform="matrix(0.004,0,0,-0.004,21.416,10.2767)"
       d="m 224,136 c 53,0 105,-26 105,-86 0,-71 -57,-122 -104,-150 -36,-22 -78,-36 -120,-36 -53,0 -105,26 -105,86 0,71 58,122 105,150 36,22 77,36 119,36 z"
       id="path32"
       inkscape:connector-curvature="0"
       style="fill:currentColor" />
  </a>
  <a
     xlink:href="textedit:///Users/archagon/Documents/Programming/Web/Blog/jekyll/images/lilypond/-:8:30:38"
     id="a34"
     transform="translate(-9.4842541,-2.8923536)">
    <path
       transform="matrix(0.004,0,0,-0.004,21.416,6.2767)"
       d="m 224,136 c 53,0 105,-26 105,-86 0,-71 -57,-122 -104,-150 -36,-22 -78,-36 -120,-36 -53,0 -105,26 -105,86 0,71 58,122 105,150 36,22 77,36 119,36 z"
       id="path36"
       inkscape:connector-curvature="0"
       style="fill:currentColor" />
  </a>
  <a
     xlink:href="textedit:///Users/archagon/Documents/Programming/Web/Blog/jekyll/images/lilypond/-:8:34:42"
     id="a38"
     transform="translate(-9.4842541,-2.8923536)">
    <path
       transform="matrix(0.004,0,0,-0.004,21.416,3.7767)"
       d="m 224,136 c 53,0 105,-26 105,-86 0,-71 -57,-122 -104,-150 -36,-22 -78,-36 -120,-36 -53,0 -105,26 -105,86 0,71 58,122 105,150 36,22 77,36 119,36 z"
       id="path40"
       inkscape:connector-curvature="0"
       style="fill:currentColor" />
  </a>
  <rect
     x="11.931746"
     y="1.0826464"
     width="0.1015"
     height="9.3016996"
     ry="0.026699999"
     id="rect42"
     style="fill:currentColor" />
  <path
     d="m 12.033346,10.357646 h -0.056 V 9.3576464 h 0.056 c 0.396,-0.232 0.92,-0.588 0.92,-1.036 0,-0.228 -0.06,-0.448 -0.16,-0.656 -0.012,-0.06 0.036,-0.1 0.084,-0.1 0.028,0 0.052,0.012 0.068,0.04 0.1,0.224 0.164,0.468 0.164,0.716 0,0.816 -1.076,1.22 -1.076,2.0359996 z"
     id="path44"
     inkscape:connector-curvature="0"
     style="fill:currentColor" />
  <a
     xlink:href="textedit:///Users/archagon/Documents/Programming/Web/Blog/jekyll/images/lilypond/-:8:24:32"
     id="a46"
     transform="translate(-9.4842541,-2.8923536)">
    <path
       transform="translate(18.1978,7.2767)"
       d="M 1.5162841,-4 C 1.9063033,-4.4707953 2.62822,-4.4707953 3.0182391,-4 2.62822,-4.377081 1.9063033,-4.377081 1.5162841,-4 z"
       id="path48"
       inkscape:connector-curvature="0"
       style="fill:currentColor;stroke:currentColor;stroke-width:0.0625;stroke-linecap:round;stroke-linejoin:round" />
  </a>
  <a
     xlink:href="textedit:///Users/archagon/Documents/Programming/Web/Blog/jekyll/images/lilypond/-:8:24:32"
     id="a50"
     transform="translate(-9.4842541,-2.8923536)">
    <path
       transform="translate(18.1978,7.2767)"
       d="m 0.4507619,-2.225 c 0.561191,-0.6209838 1.8570481,-0.6209838 2.4182391,0 -0.561191,-0.5272695 -1.8570481,-0.5272695 -2.4182391,0 z"
       id="path52"
       inkscape:connector-curvature="0"
       style="fill:currentColor;stroke:currentColor;stroke-width:0.0625;stroke-linecap:round;stroke-linejoin:round" />
  </a>
  <a
     xlink:href="textedit:///Users/archagon/Documents/Programming/Web/Blog/jekyll/images/lilypond/-:8:24:32"
     id="a54"
     transform="translate(-9.4842541,-2.8923536)">
    <path
       transform="translate(18.1978,7.2767)"
       d="m 1.3256857,3.75 c 0.3986188,0.4792226 1.1446966,0.4792226 1.5433153,0 -0.3986187,0.3855084 -1.1446965,0.3855084 -1.5433153,0 z"
       id="path56"
       inkscape:connector-curvature="0"
       style="fill:currentColor;stroke:currentColor;stroke-width:0.0625;stroke-linecap:round;stroke-linejoin:round" />
  </a>
  <path
     d="m 10.486646,0.88434645 c 0,-0.128 0.1,-0.228 0.228,-0.228 0.128,0 0.228,0.1 0.228,0.228 0,0.12799995 -0.1,0.22799995 -0.228,0.22799995 -0.128,0 -0.228,-0.1 -0.228,-0.22799995 z"
     id="path58"
     inkscape:connector-curvature="0"
     style="fill:currentColor" />
  <a
     xlink:href="textedit:///Users/archagon/Documents/Programming/Web/Blog/jekyll/images/lilypond/-:8:10:18"
     id="a60"
     transform="translate(-9.4842541,-2.8923536)">
    <path
       transform="matrix(0.004,0,0,-0.004,18.1978,10.2767)"
       d="m 224,136 c 53,0 105,-26 105,-86 0,-71 -57,-122 -104,-150 -36,-22 -78,-36 -120,-36 -53,0 -105,26 -105,86 0,71 58,122 105,150 36,22 77,36 119,36 z"
       id="path62"
       inkscape:connector-curvature="0"
       style="fill:currentColor" />
  </a>
  <a
     xlink:href="textedit:///Users/archagon/Documents/Programming/Web/Blog/jekyll/images/lilypond/-:8:13:21"
     id="a64"
     transform="translate(-9.4842541,-2.8923536)">
    <path
       transform="matrix(0.004,0,0,-0.004,18.1978,6.2767)"
       d="m 224,136 c 53,0 105,-26 105,-86 0,-71 -57,-122 -104,-150 -36,-22 -78,-36 -120,-36 -53,0 -105,26 -105,86 0,71 58,122 105,150 36,22 77,36 119,36 z"
       id="path66"
       inkscape:connector-curvature="0"
       style="fill:currentColor" />
  </a>
  <a
     xlink:href="textedit:///Users/archagon/Documents/Programming/Web/Blog/jekyll/images/lilypond/-:8:17:25"
     id="a68"
     transform="translate(-9.4842541,-2.8923536)">
    <path
       transform="matrix(0.004,0,0,-0.004,18.1978,3.7767)"
       d="m 224,136 c 53,0 105,-26 105,-86 0,-71 -57,-122 -104,-150 -36,-22 -78,-36 -120,-36 -53,0 -105,26 -105,86 0,71 58,122 105,150 36,22 77,36 119,36 z"
       id="path70"
       inkscape:connector-curvature="0"
       style="fill:currentColor" />
  </a>
  <path
     d="m 2.2960459,4.3443464 c 0.02,0 0.04,-0.004 0.06,-0.004 0.616,0 1.016,0.508 1.016,1.036 0,0.304 -0.132,0.612 -0.428,0.832 -0.088,0.068 -0.188,0.116 -0.292,0.148 0.012,0.144 0.02,0.288 0.02,0.432 0,0.076 0,0.148 -0.004,0.224 -0.028,0.48 -0.352,0.904 -0.824,0.904 -0.432,0 -0.78,-0.348 -0.78,-0.78 0,-0.232 0.212,-0.416 0.448,-0.416 0.216,0 0.38,0.192 0.38,0.416 0,0.208 -0.172,0.38 -0.38,0.38 -0.048,0 -0.096,-0.016 -0.14,-0.036 0.104,0.164 0.28,0.28 0.484,0.28 0.384,0 0.628,-0.372 0.652,-0.772 0.004,-0.072 0.008,-0.14 0.008,-0.212 0,-0.128 -0.008,-0.256 -0.02,-0.384 -0.116,0.02 -0.232,0.032 -0.356,0.032 -0.752,0 -1.33199996,-0.684 -1.33199996,-1.488 0,-0.712 0.53199996,-1.224 1.00399996,-1.76 -0.072,-0.252 -0.14,-0.504 -0.168,-0.764 -0.024,-0.204 -0.028,-0.408 -0.028,-0.616 0,-0.464 0.22,-0.90399995 0.6,-1.17999995 0.008,-0.008 0.02,-0.012 0.032,-0.012 0.012,0 0.024,0.004 0.032,0.012 0.28,0.336 0.528,0.98399995 0.528,1.43599995 0,0.576 -0.348,1.024 -0.732,1.46 0.08,0.276 0.156,0.552 0.22,0.832 z m 0.34,1.86 c 0.276,-0.096 0.468,-0.384 0.468,-0.664 0,-0.368 -0.276,-0.736 -0.716,-0.772 0.1,0.468 0.192,0.94 0.248,1.436 z m -1.552,-0.944 c 0,0.544 0.524,1.004 1.068,1.004 0.112,0 0.22,-0.008 0.328,-0.024 -0.06,-0.512 -0.152,-0.988 -0.256,-1.468 -0.316,0.036 -0.5,0.248 -0.5,0.484 0,0.176 0.104,0.368 0.328,0.496 0.016,0.016 0.028,0.036 0.028,0.056 0,0.044 -0.036,0.084 -0.08,0.084 -0.012,0 -0.024,-0.004 -0.036,-0.008 -0.32,-0.172 -0.464,-0.456 -0.464,-0.736 0,-0.352 0.228,-0.692 0.632,-0.784 -0.056,-0.24 -0.12,-0.476 -0.184,-0.712 -0.432,0.484 -0.864,0.968 -0.864,1.608 z m 1.36,-4.076 c -0.396,0.2 -0.644,0.604 -0.644,1.048 0,0.304 0.06,0.548 0.132,0.8 0.328,-0.388 0.596,-0.792 0.596,-1.3 0,-0.232 -0.016,-0.336 -0.084,-0.548 z"
     id="path72"
     inkscape:connector-curvature="0"
     style="fill:currentColor" />
  <path
     d="m 6.4400459,4.2843464 c -0.204,0 -0.304,-0.172 -0.304,-0.308 0,-0.156 0.112,-0.312 0.296,-0.312 0.024,0 0.052,0 0.072,0.004 -0.116,-0.148 -0.304,-0.24 -0.504,-0.24 -0.424,0 -0.452,0.292 -0.452,0.74 0,0.068 0.004,0.14 0.004,0.216 0,0.076 -0.004,0.148 -0.004,0.216 0,0.448 0.028,0.74 0.452,0.74 0.328,0 0.58,-0.272 0.656,-0.604 0.004,-0.024 0.024,-0.036 0.04,-0.036 0.024,0 0.044,0.016 0.044,0.044 0,0.376 -0.428,0.684 -0.74,0.684 -0.272,0 -0.548,-0.08 -0.736,-0.276 -0.196,-0.204 -0.264,-0.488 -0.264,-0.768 0,-0.28 0.068,-0.564 0.264,-0.768 0.188,-0.196 0.464,-0.276 0.736,-0.276 0.352,0 0.652,0.252 0.712,0.596 0.004,0.02 0.008,0.032 0.008,0.052 0,0.16 -0.128,0.296 -0.28,0.296 z"
     id="path74"
     inkscape:connector-curvature="0"
     style="fill:currentColor" />
  <path
     d="m 10.486646,6.8843464 c 0,-0.128 0.1,-0.228 0.228,-0.228 0.128,0 0.228,0.1 0.228,0.228 0,0.128 -0.1,0.228 -0.228,0.228 -0.128,0 -0.228,-0.1 -0.228,-0.228 z"
     id="path76"
     inkscape:connector-curvature="0"
     style="fill:currentColor" />
  <rect
     x="8.7135458"
     y="1.0826464"
     width="0.1015"
     height="9.3016996"
     ry="0.026699999"
     id="rect78"
     style="fill:currentColor" />
  <path
     d="m 8.8150459,10.357646 h -0.056 V 9.3576464 h 0.056 c 0.396,-0.232 0.92,-0.588 0.92,-1.036 0,-0.228 -0.06,-0.448 -0.16,-0.656 -0.012,-0.06 0.036,-0.1 0.084,-0.1 0.028,0 0.052,0.012 0.068,0.04 0.1,0.224 0.164,0.468 0.164,0.716 0,0.816 -1.076,1.22 -1.076,2.0359996 z"
     id="path80"
     inkscape:connector-curvature="0"
     style="fill:currentColor" />
  <path
     d="m 10.486646,2.8843464 c 0,-0.128 0.1,-0.228 0.228,-0.228 0.128,0 0.228,0.1 0.228,0.228 0,0.128 -0.1,0.228 -0.228,0.228 -0.128,0 -0.228,-0.1 -0.228,-0.228 z"
     id="path82"
     inkscape:connector-curvature="0"
     style="fill:currentColor" />
  <path
     d="m 8.8150459,10.357646 h -0.056 V 9.3576464 h 0.056 c 0.396,-0.232 0.92,-0.588 0.92,-1.036 0,-0.228 -0.06,-0.448 -0.16,-0.656 -0.012,-0.06 0.036,-0.1 0.084,-0.1 0.028,0 0.052,0.012 0.068,0.04 0.1,0.224 0.164,0.468 0.164,0.716 0,0.816 -1.076,1.22 -1.076,2.0359996 z"
     id="path84"
     inkscape:connector-curvature="0"
     style="fill:currentColor" />
  <path
     d="m 8.8150459,10.357646 h -0.056 V 9.3576464 h 0.056 c 0.396,-0.232 0.92,-0.588 0.92,-1.036 0,-0.228 -0.06,-0.448 -0.16,-0.656 -0.012,-0.06 0.036,-0.1 0.084,-0.1 0.028,0 0.052,0.012 0.068,0.04 0.1,0.224 0.164,0.468 0.164,0.716 0,0.816 -1.076,1.22 -1.076,2.0359996 z"
     id="path86"
     inkscape:connector-curvature="0"
     style="fill:currentColor" />
  <text
     font-size="2.2003"
     id="text88"
     style="font-size:2.20029998px;text-anchor:start;fill:currentColor;font-family:Century Schoolbook L"
     x="30.349646"
     y="107.50435">
    <tspan
       id="tspan90" />
  </text>
</svg>
