<svg xmlns="http://www.w3.org/2000/svg" xmlns:xlink="http://www.w3.org/1999/xlink" version="1.2" width="210.00mm" height="297.00mm" viewBox="0 0 79.6677 112.6729">
<!-- Page: 1/1 -->
<text transform="translate(3.7937, 1.8969)" font-family="Century Schoolbook L" font-size="2.2003" text-anchor="start" fill="currentColor">
<tspan>
 </tspan>
</text>
<rect transform="translate(54.3939, 8.8081)" x="0.0000" y="-2.0000" width="0.1484" height="4.0000" ry="0.0000" fill="currentColor"/>
<rect transform="translate(3.7937, 11.8081)" x="21.5743" y="-0.0890" width="1.9744" height="0.1781" ry="0.0890" fill="currentColor"/>
<rect transform="translate(3.7937, 11.8081)" x="41.5423" y="-0.0890" width="1.9744" height="0.1781" ry="0.0890" fill="currentColor"/>
<rect transform="translate(3.7937, 11.8081)" x="44.3046" y="-0.0890" width="2.0746" height="0.1781" ry="0.0890" fill="currentColor"/>
<line transform="translate(9.4843, 10.8081)" stroke-linejoin="round" stroke-linecap="round" stroke-width="0.0781" stroke="currentColor" x1="0.0390" y1="-0.0000" x2="45.0190" y2="-0.0000"/>
<line transform="translate(9.4843, 9.8081)" stroke-linejoin="round" stroke-linecap="round" stroke-width="0.0781" stroke="currentColor" x1="0.0390" y1="-0.0000" x2="45.0190" y2="-0.0000"/>
<line transform="translate(9.4843, 8.8081)" stroke-linejoin="round" stroke-linecap="round" stroke-width="0.0781" stroke="currentColor" x1="0.0390" y1="-0.0000" x2="45.0190" y2="-0.0000"/>
<line transform="translate(9.4843, 7.8081)" stroke-linejoin="round" stroke-linecap="round" stroke-width="0.0781" stroke="currentColor" x1="0.0390" y1="-0.0000" x2="45.0190" y2="-0.0000"/>
<line transform="translate(9.4843, 6.8081)" stroke-linejoin="round" stroke-linecap="round" stroke-width="0.0781" stroke="currentColor" x1="0.0390" y1="-0.0000" x2="45.0190" y2="-0.0000"/>
<rect transform="translate(32.7171, 8.8081)" x="0.0000" y="-2.0000" width="0.1484" height="4.0000" ry="0.0000" fill="currentColor"/>
<path transform="translate(30.9797, 7.3348) scale(0.0040, -0.0040)" d="M0 0c0 -198 209 -336 209 -534c0 -71 -16 -142 -42 -208c-4 -7 -11 -11 -18 -11c-12 0 -24 10 -21 25c26 61 42 127 42 194c0 105 -97 209 -170 284h-14v250h14z" fill="currentColor"/>
<rect transform="translate(30.9289, 8.8081)" x="-0.0508" y="-1.5000" width="0.1015" height="3.3017" ry="0.0267" fill="currentColor"/>
<a style="color:inherit;" xlink:href="textedit:///Users/archagon/Documents/Programming/Web/Blog/jekyll/images/lilypond/-:16:8:9">
<text transform="translate(28.4778, 15.3659)" font-family="Century Schoolbook L" font-size="2.4696" text-anchor="start" fill="currentColor">
<tspan>
the</tspan>
</text>
</a>
<a style="color:inherit;" xlink:href="textedit:///Users/archagon/Documents/Programming/Web/Blog/jekyll/images/lilypond/-:11:20:21">
<path transform="translate(29.6634, 10.8081) scale(0.0040, -0.0040)" d="M224 136c53 0 105 -26 105 -86c0 -71 -57 -122 -104 -150c-36 -22 -78 -36 -120 -36c-53 0 -105 26 -105 86c0 71 58 122 105 150c36 22 77 36 119 36z" fill="currentColor"/>
</a>
<rect transform="translate(26.9626, 8.8081)" x="-0.0508" y="-0.5000" width="0.1015" height="3.3017" ry="0.0267" fill="currentColor"/>
<a style="color:inherit;" xlink:href="textedit:///Users/archagon/Documents/Programming/Web/Blog/jekyll/images/lilypond/-:11:16:17">
<path transform="translate(25.6971, 11.8081) scale(0.0040, -0.0040)" d="M224 136c53 0 105 -26 105 -86c0 -71 -57 -122 -104 -150c-36 -22 -78 -36 -120 -36c-53 0 -105 26 -105 86c0 71 58 122 105 150c36 22 77 36 119 36z" fill="currentColor"/>
</a>
<path transform="translate(22.0308, 10.8081) scale(0.0040, -0.0040)" d="M25 44l-1 -69c0 -4 -1 -7 -1 -11c0 -22 2 -44 4 -66c46 38 96 80 96 139c0 34 -14 69 -44 69c-31 0 -53 -29 -54 -62zM-14 -136l-11 599c8 4 16 7 25 7s17 -3 25 -7l-6 -349c26 19 56 30 88 30c53 0 93 -46 93 -100c0 -82 -90 -118 -153 -169c-14 -11 -22 -32 -40 -32
c-12 0 -21 9 -21 21z" fill="currentColor"/>
<path transform="translate(24.4971, 7.3348) scale(0.0040, -0.0040)" d="M0 0c0 -198 209 -336 209 -534c0 -71 -16 -142 -42 -208c-4 -7 -11 -11 -18 -11c-12 0 -24 10 -21 25c26 61 42 127 42 194c0 105 -97 209 -170 284h-14v250h14z" fill="currentColor"/>
<rect transform="translate(24.4464, 8.8081)" x="-0.0508" y="-1.5000" width="0.1015" height="3.3017" ry="0.0267" fill="currentColor"/>
<a style="color:inherit;" xlink:href="textedit:///Users/archagon/Documents/Programming/Web/Blog/jekyll/images/lilypond/-:15:12:13">
<text transform="translate(23.1808, 15.3659)" font-family="Century Schoolbook L" font-size="2.4696" text-anchor="start" fill="currentColor">
<tspan>
are</tspan>
</text>
</a>
<a style="color:inherit;" xlink:href="textedit:///Users/archagon/Documents/Programming/Web/Blog/jekyll/images/lilypond/-:11:11:12">
<path transform="translate(23.1808, 10.8081) scale(0.0040, -0.0040)" d="M224 136c53 0 105 -26 105 -86c0 -71 -57 -122 -104 -150c-36 -22 -78 -36 -120 -36c-53 0 -105 26 -105 86c0 71 58 122 105 150c36 22 77 36 119 36z" fill="currentColor"/>
</a>
<a style="color:inherit;" xlink:href="textedit:///Users/archagon/Documents/Programming/Web/Blog/jekyll/images/lilypond/-:11:14:15">
<path transform="translate(23.1808, 8.8081)" stroke-width="0.0625" stroke-linejoin="round" stroke-linecap="round" stroke="currentColor" fill="currentColor" d="M0.496100484386705 3.04322698412698C0.915243114775008 3.9297224860077 2.09907679792698 4.40019148847716 3.01238461137084 4.04322698412698C2.13368697941569 4.3131024381651 0.949853296263712 3.84263343569563 0.496100484386705 3.04322698412698z"/>
</a>
<a style="color:inherit;" xlink:href="textedit:///Users/archagon/Documents/Programming/Web/Blog/jekyll/images/lilypond/-:12:17:18">
<path transform="translate(45.6651, 8.8081)" stroke-width="0.0625" stroke-linejoin="round" stroke-linecap="round" stroke="currentColor" fill="currentColor" d="M0.858142063492068 3.75C1.41835874098193 4.37023572392158 2.71033241012418 4.37023572392158 3.27054908761404 3.75C2.71033241012418 4.27652143820729 1.41835874098193 4.27652143820729 0.858142063492068 3.75z"/>
</a>
<polygon transform="translate(35.1295, 7.8081)" stroke-linejoin="round" stroke-linecap="round" stroke-width="0.0533" fill="currentColor" stroke="currentColor" points="11.8252 0.5857 11.8252 1.0124 0.0267 0.2133 0.0267 -0.2133"/>
<rect transform="translate(35.1802, 8.8081)" x="-0.0508" y="-0.9966" width="0.1015" height="2.2983" ry="0.0267" fill="currentColor"/>
<a style="color:inherit;" xlink:href="textedit:///Users/archagon/Documents/Programming/Web/Blog/jekyll/images/lilypond/-:16:12:13">
<text transform="translate(32.6153, 15.3659)" font-family="Century Schoolbook L" font-size="2.4696" text-anchor="start" fill="currentColor">
<tspan>
sky</tspan>
</text>
</a>
<a style="color:inherit;" xlink:href="textedit:///Users/archagon/Documents/Programming/Web/Blog/jekyll/images/lilypond/-:12:8:9">
<path transform="translate(33.9147, 10.3081) scale(0.0040, -0.0040)" d="M224 136c53 0 105 -26 105 -86c0 -71 -57 -122 -104 -150c-36 -22 -78 -36 -120 -36c-53 0 -105 26 -105 86c0 71 58 122 105 150c36 22 77 36 119 36z" fill="currentColor"/>
</a>
<a style="color:inherit;" xlink:href="textedit:///Users/archagon/Documents/Programming/Web/Blog/jekyll/images/lilypond/-:8:14:15">
<text transform="translate(33.9147, 5.7626)" font-family="sans-serif" font-size="2.6163" text-anchor="start" fill="currentColor">
<tspan>
F</tspan>
</text>
<text transform="translate(35.4170, 5.7626)" font-family="sans-serif" font-size="2.6163" text-anchor="start" fill="currentColor">
<tspan/>
</text>
<text transform="translate(35.4170, 5.7626)" font-family="sans-serif" font-size="2.6163" text-anchor="start" fill="currentColor">
<tspan/>
</text>
<text transform="translate(35.4170, 4.2626)" font-family="sans-serif" font-size="1.8502" text-anchor="start" fill="currentColor">
<tspan/>
</text>
<text transform="translate(35.4170, 4.2626)" font-family="sans-serif" font-size="1.8502" text-anchor="start" fill="currentColor">
<tspan>
7</tspan>
</text>
</a>
<path transform="translate(37.3119, 10.8081) scale(0.0040, -0.0040)" d="M25 44l-1 -69c0 -4 -1 -7 -1 -11c0 -22 2 -44 4 -66c46 38 96 80 96 139c0 34 -14 69 -44 69c-31 0 -53 -29 -54 -62zM-14 -136l-11 599c8 4 16 7 25 7s17 -3 25 -7l-6 -349c26 19 56 30 88 30c53 0 93 -46 93 -100c0 -82 -90 -118 -153 -169c-14 -11 -22 -32 -40 -32
c-12 0 -21 9 -21 21z" fill="currentColor"/>
<rect transform="translate(39.7274, 8.8081)" x="-0.0508" y="-0.6900" width="0.1015" height="2.4917" ry="0.0267" fill="currentColor"/>
<a style="color:inherit;" xlink:href="textedit:///Users/archagon/Documents/Programming/Web/Blog/jekyll/images/lilypond/-:16:16:17">
<text transform="translate(36.9804, 15.3659)" font-family="Century Schoolbook L" font-size="2.4696" text-anchor="start" fill="currentColor">
<tspan>
and</tspan>
</text>
</a>
<a style="color:inherit;" xlink:href="textedit:///Users/archagon/Documents/Programming/Web/Blog/jekyll/images/lilypond/-:12:11:12">
<path transform="translate(38.4619, 10.8081) scale(0.0040, -0.0040)" d="M224 136c53 0 105 -26 105 -86c0 -71 -57 -122 -104 -150c-36 -22 -78 -36 -120 -36c-53 0 -105 26 -105 86c0 71 58 122 105 150c36 22 77 36 119 36z" fill="currentColor"/>
</a>
<rect transform="translate(19.5301, 8.8081)" x="-0.0508" y="-2.5000" width="0.1015" height="3.2294" ry="0.0267" fill="currentColor"/>
<a style="color:inherit;" xlink:href="textedit:///Users/archagon/Documents/Programming/Web/Blog/jekyll/images/lilypond/-:15:8:9">
<text transform="translate(16.6586, 15.3659)" font-family="Century Schoolbook L" font-size="2.4696" text-anchor="start" fill="currentColor">
<tspan>
You</tspan>
</text>
</a>
<path transform="translate(14.4843, 8.8081) scale(0.0040, -0.0040)" d="M360 25c-51 0 -76 43 -76 77c0 39 28 78 74 78c6 0 13 0 18 -1c-29 37 -76 60 -126 60c-106 0 -113 -73 -113 -185c0 -17 1 -35 1 -54s-1 -37 -1 -54c0 -112 7 -185 113 -185c82 0 145 68 164 151c1 6 6 9 10 9c6 0 11 -4 11 -11c0 -94 -107 -171 -185 -171
c-68 0 -137 20 -184 69c-49 51 -66 122 -66 192s17 141 66 192c47 49 116 69 184 69c88 0 163 -63 178 -149c1 -5 2 -8 2 -13c0 -40 -32 -74 -70 -74z" fill="currentColor"/>
<path transform="translate(10.2843, 9.8081) scale(0.0040, -0.0040)" d="M374 260c5 0 10 1 15 1c154 0 254 -127 254 -259c0 -76 -33 -153 -107 -208c-22 -17 -47 -29 -73 -37c3 -36 5 -72 5 -108c0 -19 0 -37 -1 -56c-7 -120 -88 -226 -206 -226c-108 0 -195 87 -195 195c0 58 53 104 112 104c54 0 95 -48 95 -104c0 -52 -43 -95 -95 -95
c-12 0 -24 4 -35 9c26 -41 70 -70 121 -70c96 0 157 93 163 193c1 18 2 35 2 53c0 32 -2 64 -5 96c-29 -5 -58 -8 -89 -8c-188 0 -333 171 -333 372c0 178 133 306 251 440c-18 63 -35 126 -42 191c-6 51 -7 102 -7 154c0 116 55 226 150 295c2 2 5 3 8 3s6 -1 8 -3
c70 -84 132 -246 132 -359c0 -144 -87 -256 -183 -365c20 -69 39 -138 55 -208zM459 -205c69 24 117 96 117 166c0 92 -69 184 -179 193c25 -117 48 -235 62 -359zM71 31c0 -136 131 -251 267 -251c28 0 55 2 82 6c-15 128 -38 247 -64 367c-79 -9 -125 -62 -125 -121
c0 -44 26 -92 82 -124c4 -4 7 -9 7 -14c0 -11 -9 -21 -20 -21c-3 0 -6 1 -9 2c-80 43 -116 114 -116 184c0 88 57 173 158 196c-14 60 -30 119 -46 178c-108 -121 -216 -242 -216 -402zM411 1050c-99 -50 -161 -151 -161 -262c0 -76 15 -137 33 -200c82 97 149 198 149 325
c0 58 -4 84 -21 137z" fill="currentColor"/>
<a style="color:inherit;" xlink:href="textedit:///Users/archagon/Documents/Programming/Web/Blog/jekyll/images/lilypond/-:11:8:9">
<path transform="translate(18.1978, 9.8081) scale(0.0040, -0.0040)" d="M318 67c0 25 -21 42 -43 42c-4 0 -9 -1 -13 -2c-31 -9 -79 -41 -117 -65s-85 -55 -106 -80c-7 -8 -11 -19 -11 -29c0 -25 21 -42 43 -42c4 0 8 1 12 2c31 9 79 41 117 65s86 55 107 80c7 8 11 19 11 29zM267 136c44 0 79 -20 79 -68c0 -19 -6 -38 -12 -57
c-13 -37 -32 -73 -65 -95c-54 -36 -115 -52 -190 -52c-44 0 -79 20 -79 68c0 19 6 38 12 57c13 37 31 73 64 95c54 36 116 52 191 52z" fill="currentColor"/>
</a>
<a style="color:inherit;" xlink:href="textedit:///Users/archagon/Documents/Programming/Web/Blog/jekyll/images/lilypond/-:8:8:9">
<text transform="translate(18.1978, 5.7626)" font-family="sans-serif" font-size="2.6163" text-anchor="start" fill="currentColor">
<tspan>
C</tspan>
</text>
<text transform="translate(20.0188, 5.7626)" font-family="sans-serif" font-size="2.6163" text-anchor="start" fill="currentColor">
<tspan/>
</text>
<text transform="translate(20.0188, 5.7626)" font-family="sans-serif" font-size="2.6163" text-anchor="start" fill="currentColor">
<tspan>
m</tspan>
</text>
<text transform="translate(22.5454, 4.2626)" font-family="sans-serif" font-size="1.8502" text-anchor="start" fill="currentColor">
<tspan/>
</text>
<text transform="translate(22.5454, 4.2626)" font-family="sans-serif" font-size="1.8502" text-anchor="start" fill="currentColor">
<tspan>
7</tspan>
</text>
</a>
<rect transform="translate(49.7764, 8.8081)" x="-0.0508" y="-0.5000" width="0.1015" height="3.2294" ry="0.0267" fill="currentColor"/>
<a style="color:inherit;" xlink:href="textedit:///Users/archagon/Documents/Programming/Web/Blog/jekyll/images/lilypond/-:12:19:20">
<path transform="translate(48.4441, 11.8081) scale(0.0040, -0.0040)" d="M318 67c0 25 -21 42 -43 42c-4 0 -9 -1 -13 -2c-31 -9 -79 -41 -117 -65s-85 -55 -106 -80c-7 -8 -11 -19 -11 -29c0 -25 21 -42 43 -42c4 0 8 1 12 2c31 9 79 41 117 65s86 55 107 80c7 8 11 19 11 29zM267 136c44 0 79 -20 79 -68c0 -19 -6 -38 -12 -57
c-13 -37 -32 -73 -65 -95c-54 -36 -115 -52 -190 -52c-44 0 -79 20 -79 68c0 19 6 38 12 57c13 37 31 73 64 95c54 36 116 52 191 52z" fill="currentColor"/>
</a>
<a style="color:inherit;" xlink:href="textedit:///Users/archagon/Documents/Programming/Web/Blog/jekyll/images/lilypond/-:8:19:20">
<text transform="translate(48.4441, 5.7626)" font-family="sans-serif" font-size="2.6163" text-anchor="start" fill="currentColor">
<tspan>
C</tspan>
</text>
<text transform="translate(50.2651, 5.7626)" font-family="sans-serif" font-size="2.6163" text-anchor="start" fill="currentColor">
<tspan/>
</text>
<text transform="translate(50.2651, 5.7626)" font-family="sans-serif" font-size="2.6163" text-anchor="start" fill="currentColor">
<tspan/>
</text>
<text transform="translate(50.2651, 4.2626)" font-family="sans-serif" font-size="1.8502" text-anchor="start" fill="currentColor">
<tspan/>
</text>
</a>
<rect transform="translate(46.9306, 8.8081)" x="-0.0508" y="-0.2044" width="0.1015" height="3.0061" ry="0.0267" fill="currentColor"/>
<a style="color:inherit;" xlink:href="textedit:///Users/archagon/Documents/Programming/Web/Blog/jekyll/images/lilypond/-:16:23:24">
<text transform="translate(45.6651, 15.3659)" font-family="Century Schoolbook L" font-size="2.4696" text-anchor="start" fill="currentColor">
<tspan>
TRAIN,</tspan>
</text>
</a>
<a style="color:inherit;" xlink:href="textedit:///Users/archagon/Documents/Programming/Web/Blog/jekyll/images/lilypond/-:12:14:15">
<path transform="translate(42.8042, 11.3081) scale(0.0040, -0.0040)" d="M224 136c53 0 105 -26 105 -86c0 -71 -57 -122 -104 -150c-36 -22 -78 -36 -120 -36c-53 0 -105 26 -105 86c0 71 58 122 105 150c36 22 77 36 119 36z" fill="currentColor"/>
</a>
<a style="color:inherit;" xlink:href="textedit:///Users/archagon/Documents/Programming/Web/Blog/jekyll/images/lilypond/-:16:20:21">
<text transform="translate(41.7097, 15.3659)" font-family="Century Schoolbook L" font-size="2.4696" text-anchor="start" fill="currentColor">
<tspan>
my</tspan>
</text>
</a>
<rect transform="translate(44.0698, 8.8081)" x="-0.0508" y="-0.3973" width="0.1015" height="2.6989" ry="0.0267" fill="currentColor"/>
<a style="color:inherit;" xlink:href="textedit:///Users/archagon/Documents/Programming/Web/Blog/jekyll/images/lilypond/-:12:16:17">
<path transform="translate(45.6651, 11.8081) scale(0.0040, -0.0040)" d="M224 136c53 0 105 -26 105 -86c0 -71 -57 -122 -104 -150c-36 -22 -78 -36 -120 -36c-53 0 -105 26 -105 86c0 71 58 122 105 150c36 22 77 36 119 36z" fill="currentColor"/>
</a>
<text transform="translate(39.8339, 110.3967)" font-family="Century Schoolbook L" font-size="2.2003" text-anchor="start" fill="currentColor">
<tspan/>
</text>
</svg>
